<?xml version="1.0" encoding="UTF-8"?>
<!DOCTYPE svg PUBLIC "-//W3C//DTD SVG 1.1//EN" "http://www.w3.org/Graphics/SVG/1.1/DTD/svg11.dtd">
<!-- Creator: CorelDRAW 2018 (64-Bit) -->
<svg xmlns="http://www.w3.org/2000/svg" xml:space="preserve" width="38.5264mm" height="38.2353mm" version="1.1" style="shape-rendering:geometricPrecision; text-rendering:geometricPrecision; image-rendering:optimizeQuality; fill-rule:evenodd; clip-rule:evenodd"
viewBox="0 0 905.97 899.12"
 xmlns:xlink="http://www.w3.org/1999/xlink">
 <defs>
  <style type="text/css">
   <![CDATA[
    .fil2 {fill:black}
    .fil1 {fill:white}
    .fil4 {fill:#003333;fill-rule:nonzero}
    .fil0 {fill:url(#id11)}
    .fil7 {fill:url(#id12)}
    .fil3 {fill:url(#id13);fill-rule:nonzero}
    .fil5 {fill:url(#id14);fill-rule:nonzero}
    .fil6 {fill:url(#id15);fill-rule:nonzero}
   ]]>
  </style>
    <mask id="id0">
  <linearGradient id="id1" gradientUnits="userSpaceOnUse" x1="458.87" y1="73.31" x2="464.6" y2="261.22">
   <stop offset="0" style="stop-opacity:1; stop-color:white"/>
   <stop offset="1" style="stop-opacity:0; stop-color:white"/>
  </linearGradient>
     <rect style="fill:url(#id1)" x="247.49" y="100.92" width="411.08" height="256.05"/>
    </mask>
    <clipPath id="id2">
     <path d="M453.03 54.05c218.64,0 395.89,177.24 395.89,395.89 0,218.64 -177.24,395.89 -395.89,395.89 -218.64,0 -395.89,-177.24 -395.89,-395.89 0,-218.64 177.25,-395.89 395.89,-395.89z"/>
    </clipPath>
    <clipPath id="id3">
     <path d="M453.03 54.05c218.64,0 395.89,177.24 395.89,395.89 0,218.64 -177.24,395.89 -395.89,395.89 -218.64,0 -395.89,-177.24 -395.89,-395.89 0,-218.64 177.25,-395.89 395.89,-395.89z"/>
    </clipPath>
    <clipPath id="id4">
     <path d="M453.03 54.05c218.64,0 395.89,177.24 395.89,395.89 0,218.64 -177.24,395.89 -395.89,395.89 -218.64,0 -395.89,-177.24 -395.89,-395.89 0,-218.64 177.25,-395.89 395.89,-395.89z"/>
    </clipPath>
    <clipPath id="id5">
     <path d="M506.01 57.58l0 784.7c-17.33,2.32 -35.01,3.54 -52.99,3.54 -218.64,0 -395.89,-177.24 -395.89,-395.89 0,-218.64 177.25,-395.89 395.89,-395.89 17.97,0 35.65,1.22 52.98,3.54z"/>
    </clipPath>
    <clipPath id="id6">
     <path d="M483.17 420.57l364.6 0c0.71,9.7 1.08,19.49 1.08,29.37 0,208.48 -161.15,379.32 -365.68,394.75l0 -424.12z"/>
    </clipPath>
    <clipPath id="id7">
     <path d="M848.88 453.14l-622.02 0 0 -328.13c64.12,-44.71 142.08,-70.96 226.18,-70.96 218.64,0 395.89,177.24 395.89,395.89 0,1.07 -0.03,2.13 -0.04,3.2z"/>
    </clipPath>
    <clipPath id="id8">
     <path d="M905.97 457.32c-3.62,226.41 -173.3,412.45 -392.59,441.64 10.75,-17.94 21.02,-39.27 29.03,-63.46 4.87,-14.73 8.91,-30.51 11.7,-47.24 11.29,-67.65 26.01,-157.48 28.79,-258.34 75.81,-4.89 143.92,-13.94 198.84,-25.97 51.53,-11.28 93.83,-27.02 124.24,-46.62zm-655.89 -410.75l41.48 0c-5.78,5.64 -11.17,11.46 -16.13,17.22 -98.08,122.35 -144.74,308.97 -123.86,443.41 57.58,12.35 109.15,18.51 168.24,22.41 43.27,2.86 88.04,4.4 133.21,4.4 3.93,0 7.86,-0.01 11.77,-0.03 -2.51,119.3 -13.19,277.32 -71.01,365.14 -222.21,-29.02 -393.79,-219.05 -393.79,-449.18 0,-237.3 158.81,-355.2 250.08,-403.37zm169.07 0l240.21 0c113.84,58.34 199.76,163.42 232.38,289.94 -25.85,17.65 -62.79,35.64 -135.06,51.46 -76.99,16.85 -184.29,27.28 -303.65,27.28 -44.89,0 -87.07,-1.38 -125.79,-3.94 -21.16,-1.4 -41.67,-3.15 -61.37,-5.23 5.44,-97.49 28.85,-184.07 63.92,-248.2 29.71,-54.32 60.96,-88.71 89.36,-111.33z"/>
    </clipPath>
    <mask id="id9">
  <linearGradient id="id10" gradientUnits="userSpaceOnUse" x1="467.52" y1="-4.81" x2="460.81" y2="221.92">
   <stop offset="0" style="stop-opacity:1; stop-color:white"/>
   <stop offset="1" style="stop-opacity:0; stop-color:white"/>
  </linearGradient>
     <rect style="fill:url(#id10)" x="312.57" y="22.6" width="367.96" height="288.2"/>
    </mask>
  <radialGradient id="id11" gradientUnits="userSpaceOnUse" gradientTransform="matrix(1.25 -0 -0 1.25 -137 -83)" cx="548.04" cy="331.17" r="376.3" fx="548.04" fy="331.17">
   <stop offset="0" style="stop-opacity:1; stop-color:lime"/>
   <stop offset="1" style="stop-opacity:1; stop-color:#009933"/>
  </radialGradient>
  <radialGradient id="id12" gradientUnits="userSpaceOnUse" gradientTransform="matrix(1.19048 -0 -0 1.18146 -104 -52)" cx="543.58" cy="287.72" r="452.09" fx="543.58" fy="287.72">
   <stop offset="0" style="stop-opacity:1; stop-color:#FEFEFE"/>
   <stop offset="1" style="stop-opacity:1; stop-color:#B3B3B3"/>
  </radialGradient>
  <linearGradient id="id13" gradientUnits="userSpaceOnUse" x1="131.82" y1="277.67" x2="464.85" y2="286.75">
   <stop offset="0" style="stop-opacity:1; stop-color:#003333"/>
   <stop offset="1" style="stop-opacity:1; stop-color:#339966"/>
  </linearGradient>
  <linearGradient id="id14" gradientUnits="userSpaceOnUse" xlink:href="#id13" x1="672.63" y1="458.04" x2="699.87" y2="898.63">
  </linearGradient>
  <linearGradient id="id15" gradientUnits="userSpaceOnUse" xlink:href="#id13" x1="568.38" y1="494.03" x2="905.97" y2="494.03">
  </linearGradient>
 </defs>
 <g id="Слой_x0020_1">
  <metadata id="CorelCorpID_0Corel-Layer"/>
  <g id="_3025253957856">
   <circle class="fil0" cx="453.03" cy="449.94" r="395.89"/>
   <path class="fil1" style="mask:url(#id0)" d="M453.03 103.27c112.22,0 203.19,56.27 203.19,125.68 0,69.41 -90.97,125.67 -203.19,125.67 -112.22,0 -203.19,-56.27 -203.19,-125.67 0,-69.41 90.97,-125.68 203.19,-125.68z"/>
   <g style="clip-path:url(#id2)">
   </g>
   <g style="clip-path:url(#id3)">
    <image x="-219.19" y="-174.96" width="1348.14" height="1347.59" xlink:href="LOGO_Images\LOGO_ImgID1.png"/>
   </g>
   <g style="clip-path:url(#id4)">
   </g>
   <path class="fil2" d="M358.56 5.26c-33.68,8.89 -62.43,34.38 -83.39,58.83 -13.36,16.7 -25.76,34.58 -37.16,53.38 49.8,-32.28 107.32,-53.67 169.18,-60.8 7.78,-6.96 15.4,-12.99 22.77,-18.26 -21.6,-31.23 -58.82,-35.63 -71.39,-33.15z"/>
   <g style="clip-path:url(#id5)">
    <image x="-12.9" y="29.45" width="518.91" height="909.71" xlink:href="LOGO_Images\LOGO_ImgID2.png"/>
   </g>
   <path class="fil3" d="M417.75 46.81c-7,-10.12 -16.1,-16.76 -25.14,-20.95 -13.19,-6.12 -25.46,-7.11 -31.05,-6.08 -14.51,3.96 -28.11,11.51 -40.45,20.76 -12.88,9.66 -24.45,21.25 -34.29,32.67l-2.06 2.6 -0.11 0.14 -2.05 2.62 -0.11 0.14 -2.03 2.64 -0.11 0.14 -2.02 2.66 -0.1 0.14 -2 2.68 -0.1 0.14 -2.09 2.84 -1.97 2.73 -0.1 0.14 -1.96 2.75 -0.09 0.13 -1.94 2.77 -0.09 0.13 -1.93 2.79 -0.09 0.13 -1.91 2.81 -0.09 0.13 -1.9 2.84 -0.08 0.12 -1.88 2.85 -0.08 0.12 -1.86 2.87 -1.37 2.14 -0.56 0.88 -0.08 0.12 -1.83 2.91 -0.08 0.12 -1.82 2.93 -0.08 0.12 -1.8 2.95 -0.07 0.12 -1.79 2.97 -0.07 0.12 -1.77 2.99 -0.07 0.11 -1.75 3 -0.07 0.11 -1.74 3.02 -0.06 0.11 -1.72 3.04 -0.06 0.1 -1.7 3.06 -0.06 0.1 -1.69 3.07 -0.06 0.1 -1.67 3.09 -1.61 3.01 -0.1 0.19 -0.05 0.1 -1.64 3.12 -0.05 0.1 -1.62 3.14 -0.05 0.1 -1.61 3.15 -0.04 0.09 -1.59 3.17 -0.04 0.09 -1.57 3.18 -0.04 0.09 -1.55 3.2 -0.04 0.08 -1.54 3.21 -0.04 0.08 -1.52 3.23 -0.04 0.08 -1.5 3.24 -0.04 0.08 -1.49 3.26 -0.03 0.08 -1.47 3.27 -0.03 0.07 -1.45 3.28 -0.03 0.07 -1.43 3.29 -0.03 0.07 -1.42 3.31 -0.03 0.07 -1.4 3.32c-0.95,2.26 -1.88,4.52 -2.8,6.79l-0.02 0.06 -1.35 3.35 -0.02 0.05 -1.33 3.37 -0.02 0.05 -1.31 3.38 -0.02 0.05 -1.29 3.39 -0.02 0.04 -1.27 3.4 -0.02 0.04 -1.25 3.41 -0.01 0.04 -1.24 3.42 -0.01 0.04 -1.22 3.43 -0.01 0.03 -1.2 3.43 -0.01 0.03 -1.18 3.44 -0.01 0.03 -1.16 3.45 -0.01 0.03 -1.15 3.46 -0.01 0.02 -1.12 3.47 -0.01 0.02 -1.11 3.48 -0.01 0.02 -1.09 3.48 -0 0.02 -1.07 3.49 -0 0.01 -1.05 3.49 -0 0.01 -1.03 3.5 -0 0 -1.01 3.51 -0 0 -0.99 3.52c-20.83,74.57 -28.05,150.63 -19.84,215.19 24.87,5.08 48.58,9 72.28,12.08 26.83,3.49 54.22,5.98 83.7,7.92l66.1 3.3c20.88,0.69 50.3,0.78 73.51,0.78l4.47 15.07 -15.49 25.78c0.11,-3.66 0.22,-7.3 0.32,-10.91 -20.47,-0.04 -41.77,-0.43 -63.73,-1.16 -23.1,-0.76 -45.49,-1.87 -67.03,-3.3 -29.58,-1.95 -57.52,-4.51 -85.62,-8.16l-0.06 0c-28.05,-3.64 -55.73,-8.33 -84.71,-14.55l-9.97 -2.14 -1.57 -10.1c-10.99,-70.79 -3.89,-155.35 19.12,-237.72 22,-78.76 58.58,-155.82 107.81,-217.23l11.56 9.29 0.01 -0.01c20.94,-24.35 49.57,-49.65 83.1,-58.52l0.03 -0.01c12.57,-2.49 49.78,1.91 71.38,33.13l-11.82 8.99 -0.37 -0.57z"/>
   <path class="fil4" d="M164.74 494.81c24.87,5.08 48.58,9 72.28,12.08 26.83,3.49 54.22,5.98 83.7,7.92l66.1 3.3c20.88,0.69 50.3,0.78 73.51,0.78l4.47 15.07 -15.49 25.78c0.11,-3.66 0.22,-7.3 0.32,-10.91 -20.47,-0.04 -41.77,-0.43 -63.73,-1.16 -23.1,-0.76 -45.49,-1.87 -67.03,-3.3 -29.58,-1.95 -57.52,-4.51 -85.62,-8.16l-0.06 0c-28.05,-3.64 -55.73,-8.33 -84.71,-14.55l-7.57 -1.62 10.67 -12.87 13.16 -12.38z"/>
   <path class="fil2" d="M484.17 844.61c9.1,28.63 23.3,56.94 29.21,54.35 5.9,-2.59 20.96,-39.15 28.95,-63.25 -18.9,4.36 -38.33,7.36 -58.16,8.9z"/>
   <g style="clip-path:url(#id6)">
    <image x="483.17" y="420.57" width="443.66" height="493" xlink:href="LOGO_Images\LOGO_ImgID3.png"/>
   </g>
   <path class="fil5" d="M499.45 843.12c2.6,7.84 5.61,15.65 8.7,22.71 0.99,2.24 1.97,4.38 2.93,6.39 2.31,-4.58 4.56,-9.34 6.72,-14.26 3.74,-8.49 7.25,-17.54 10.41,-27.1 2.45,-7.4 4.63,-14.87 6.48,-22.34 1.81,-7.31 3.39,-14.89 4.69,-22.69 5.58,-33.43 12.01,-72.37 17.47,-116.08 5.43,-43.4 9.78,-90.69 11.14,-140.24l0.37 -13.51 13.49 -0.87c37.48,-2.42 72.85,-5.83 105.47,-10.09 32.98,-4.31 63.6,-9.56 91.17,-15.59 19.04,-4.17 36.8,-8.97 53.13,-14.37 16.28,-5.38 30.89,-11.23 43.68,-17.53l12.99 26.56c-14.44,7.1 -30.29,13.5 -47.39,19.15 -17.23,5.7 -36,10.77 -56.15,15.18 -27.8,6.08 -59.23,11.45 -93.61,15.94 -29.65,3.87 -61.15,7.04 -94.02,9.41 -1.75,46.27 -5.84,89.75 -10.82,129.55 -5.41,43.32 -11.99,83.13 -17.7,117.35 -1.42,8.51 -3.16,16.82 -5.16,24.9 -2.15,8.69 -4.53,16.87 -7.06,24.55 -3.43,10.38 -7.3,20.33 -11.46,29.77 -10.22,22.4 -8.09,31.52 -25.92,21.88 -2.26,3.93 -4.22,6.54 -5.65,7.17 -5.9,2.59 -20.09,-25.68 -29.19,-54.28l0.28 -0.09c5.02,-0.4 10.02,-0.88 14.98,-1.46z"/>
   <path class="fil2" d="M848.85 444.76c25,0.78 57.4,3.52 57.11,12.55 -16.28,10.49 -35.96,19.88 -58.65,28.07 1.03,-11.68 1.6,-23.5 1.6,-35.45 0,-1.73 -0.04,-3.45 -0.07,-5.17z"/>
   <path class="fil6" d="M868.77 460.67c-6.65,-0.56 -13.56,-0.9 -19.97,-1.11 0.08,-3.2 0.12,-6.41 0.12,-9.62 0,-1.73 -0.04,-3.45 -0.07,-5.17 25,0.78 57.4,3.52 57.11,12.55 -7.36,4.75 -15.42,9.27 -24.14,13.55l6.48 13.24c-14.44,7.1 -30.29,13.5 -47.39,19.15 -17.23,5.7 -36,10.77 -56.15,15.18 -27.8,6.08 -59.23,11.45 -93.61,15.94 -27.64,3.61 -56.87,6.61 -87.33,8.91l-20.95 -13.38 -14.51 -13.92 13.49 -0.87c37.48,-2.42 72.85,-5.83 105.47,-10.09 32.98,-4.31 63.6,-9.56 91.17,-15.59 19.04,-4.17 36.8,-8.97 53.13,-14.37 13.56,-4.48 25.97,-9.29 37.13,-14.41z"/>
   <g style="clip-path:url(#id7)">
    <image x="226.86" y="-0.18" width="671.59" height="453.32" xlink:href="LOGO_Images\LOGO_ImgID4.png"/>
   </g>
   <path class="fil7" d="M905.97 457.32c-3.62,226.41 -173.3,412.45 -392.59,441.64 10.75,-17.94 21.02,-39.27 29.03,-63.46 4.87,-14.73 8.91,-30.51 11.7,-47.24 11.29,-67.65 26.01,-157.48 28.79,-258.34 75.81,-4.89 143.92,-13.94 198.84,-25.97 51.53,-11.28 93.83,-27.02 124.24,-46.62zm-400 -457.32c187.27,21.8 339.69,157.78 385.77,336.51 -25.85,17.65 -62.79,35.64 -135.06,51.46 -76.99,16.85 -184.29,27.28 -303.65,27.28 -44.89,0 -87.07,-1.38 -125.79,-3.94 -21.16,-1.4 -41.67,-3.15 -61.37,-5.23 5.44,-97.49 28.85,-184.07 63.92,-248.2 33.92,-62.03 69.86,-98.07 101.26,-120.26 32.01,-22.63 55.63,-32.97 74.92,-37.63zm-147.41 5.26c-1.7,0.35 -3.39,0.7 -5.09,1.07 -19.38,4.52 -42.7,12.76 -61.43,20.48 -69.74,28.73 -292.04,142.37 -292.04,423.13 0,230.12 171.58,420.15 393.79,449.18 57.82,-87.82 68.51,-245.83 71.01,-365.14 -3.91,0.02 -7.84,0.03 -11.77,0.03 -45.17,0 -89.94,-1.54 -133.21,-4.4 -59.09,-3.91 -110.66,-10.06 -168.24,-22.41 -20.88,-134.44 25.78,-321.06 123.86,-443.41 20.94,-24.35 49.58,-49.67 83.13,-58.52z"/>
   <g style="clip-path:url(#id8)">
    <image x="-170.48" y="46.57" width="1224.83" height="1024.53" xlink:href="LOGO_Images\LOGO_ImgID5.png"/>
   </g>
   <path class="fil1" style="mask:url(#id9)" d="M475.24 24.99c113.92,7.04 202.93,67.66 202.93,141.39 0,78.47 -100.82,142.07 -225.19,142.07 -117.35,0 -139.43,-36.31 -138,-82.93 2.6,-84.52 120.8,-202.97 160.25,-200.53z"/>
  </g>
 </g>
</svg>
